<svg width="64" height="64" viewBox="0 0 64 64" fill="none" xmlns="http://www.w3.org/2000/svg">
  <defs>
    <linearGradient id="bg" x1="10" y1="8" x2="54" y2="58" gradientUnits="userSpaceOnUse">
      <stop stop-color="#1A212B"/>
      <stop offset="1" stop-color="#0D1117"/>
    </linearGradient>
    <linearGradient id="fur" x1="18" y1="15" x2="44" y2="47" gradientUnits="userSpaceOnUse">
      <stop stop-color="#D2B089"/>
      <stop offset="1" stop-color="#A88765"/>
    </linearGradient>
    <linearGradient id="mask" x1="17" y1="22" x2="48" y2="43" gradientUnits="userSpaceOnUse">
      <stop stop-color="#FFF7EE"/>
      <stop offset="1" stop-color="#E4D9CD"/>
    </linearGradient>
  </defs>

  <rect x="4" y="4" width="56" height="56" rx="16" fill="url(#bg)"/>
  <rect x="4.75" y="4.75" width="54.5" height="54.5" rx="15.25" stroke="#2A3441" stroke-width="1.5"/>

  <path d="M18.5 24L22.75 13.5L31 20.5L18.5 24Z" fill="url(#fur)"/>
  <path d="M45.5 24L41.25 13.5L33 20.5L45.5 24Z" fill="url(#fur)"/>
  <path d="M21.5 22L24 16.75L28.75 20.75L21.5 22Z" fill="#F3E8D9"/>
  <path d="M42.5 22L40 16.75L35.25 20.75L42.5 22Z" fill="#F3E8D9"/>

  <path d="M15 33.5C15 24.3873 22.3873 17 31.5 17H32.5C41.6127 17 49 24.3873 49 33.5C49 42.6127 41.6127 50 32.5 50H31.5C22.3873 50 15 42.6127 15 33.5Z" fill="url(#fur)"/>
  <path d="M18 33.5C18 27.1487 23.1487 22 29.5 22H34.5C40.8513 22 46 27.1487 46 33.5C46 39.8513 40.8513 45 34.5 45H29.5C23.1487 45 18 39.8513 18 33.5Z" fill="url(#mask)"/>

  <ellipse cx="24.5" cy="31.5" rx="4.25" ry="6.5" fill="#8C7155"/>
  <ellipse cx="39.5" cy="31.5" rx="4.25" ry="6.5" fill="#8C7155"/>
  <ellipse cx="24.5" cy="31" rx="2" ry="2.75" fill="#F4FBFF"/>
  <ellipse cx="39.5" cy="31" rx="2" ry="2.75" fill="#F4FBFF"/>
  <circle cx="24.9" cy="30.5" r="0.65" fill="#0F141B"/>
  <circle cx="39.9" cy="30.5" r="0.65" fill="#0F141B"/>

  <path d="M28.5 36C29.9 34.8 34.1 34.8 35.5 36V39.25C34.2 40.85 29.8 40.85 28.5 39.25V36Z" fill="#2A2020"/>
  <path d="M27.25 40.75C28.95 42.4 30.4 43.25 32 43.25C33.6 43.25 35.05 42.4 36.75 40.75" stroke="#6B5543" stroke-width="1.5" stroke-linecap="round"/>

  <path d="M19.5 42.25C22.1 39.95 25.2 38.75 28.8 38.75" stroke="#7E654E" stroke-width="1.2" stroke-linecap="round" opacity="0.9"/>
  <path d="M44.5 42.25C41.9 39.95 38.8 38.75 35.2 38.75" stroke="#7E654E" stroke-width="1.2" stroke-linecap="round" opacity="0.9"/>

  <circle cx="48.25" cy="15.75" r="3.25" fill="#76EED2"/>
  <circle cx="48.25" cy="15.75" r="1.2" fill="#E8FFF8"/>
</svg>
